<?xml version="1.0" encoding="utf-8"?>
<!-- Generator: Adobe Illustrator 26.0.0, SVG Export Plug-In . SVG Version: 6.00 Build 0)  -->
<svg version="1.2" baseProfile="tiny" id="katman_1"
	 xmlns="http://www.w3.org/2000/svg" xmlns:xlink="http://www.w3.org/1999/xlink" x="0px" y="0px" viewBox="0 0 186.43 43.2"
	 overflow="visible" xml:space="preserve">
<g>
	<path d="M21.46,22.18c0,3.55-0.85,6.53-2.54,8.93c-1.89,2.72-4.54,4.08-7.97,4.08c-2.37,0-4.44-0.69-6.22-2.06
		c-1.78-1.38-3-3.2-3.67-5.47h-0.1v6.96H0V0h0.96v16.66h0.1c0.61-2.37,1.8-4.22,3.58-5.54c1.78-1.33,3.88-1.99,6.31-1.99
		c3.36,0,6,1.38,7.92,4.13C20.59,15.71,21.46,18.69,21.46,22.18z M20.5,22.18c0-3.26-0.75-6.02-2.26-8.26
		c-1.76-2.56-4.19-3.84-7.3-3.84c-3.3,0-5.84,1.23-7.63,3.7c-1.57,2.18-2.35,4.98-2.35,8.4c0,3.26,0.83,6.02,2.5,8.26
		c1.86,2.53,4.35,3.79,7.49,3.79c3.14,0,5.57-1.26,7.3-3.79C19.74,28.22,20.5,25.47,20.5,22.18z"/>
	<path d="M73.6,22.13c0,3.58-0.94,6.59-2.83,9.02c-2.05,2.69-4.82,4.03-8.3,4.03c-3.46,0-6.22-1.34-8.3-4.03
		c-1.86-2.43-2.78-5.44-2.78-9.02c0-3.55,0.94-6.56,2.83-9.02c2.08-2.66,4.85-3.98,8.3-3.98s6.21,1.34,8.26,4.03
		C72.65,15.58,73.6,18.58,73.6,22.13z M72.64,22.13c0-3.26-0.85-6.03-2.54-8.3c-1.89-2.5-4.42-3.74-7.58-3.74s-5.7,1.25-7.58,3.74
		c-1.73,2.24-2.59,5.01-2.59,8.3c0,3.33,0.85,6.11,2.54,8.35c1.89,2.5,4.43,3.74,7.63,3.74c3.2,0,5.73-1.25,7.58-3.74
		C71.79,28.21,72.64,25.42,72.64,22.13z"/>
	<path d="M86.88,10.66h-5.57v23.95h-0.96V10.66H70.33l1.45-0.96h8.57v-5.9l0.96-1.97V9.7h5.57V10.66z"/>
	<path d="M110.25,22.08c0,3.52-0.85,6.5-2.54,8.93c-1.95,2.78-4.61,4.18-7.97,4.18c-2.43,0-4.54-0.67-6.31-2.02
		c-1.78-1.34-2.97-3.18-3.58-5.52h-0.1V43.2H88.8V9.7h0.96v6.96h0.1c0.64-2.27,1.86-4.1,3.65-5.47c1.79-1.38,3.87-2.06,6.24-2.06
		c3.39,0,6.05,1.36,7.97,4.08C109.41,15.57,110.25,18.53,110.25,22.08z M109.29,22.08c0-3.26-0.75-6-2.26-8.21
		c-1.73-2.53-4.16-3.79-7.3-3.79s-5.63,1.25-7.49,3.74c-1.66,2.27-2.5,5.02-2.5,8.26c0,3.46,0.78,6.27,2.35,8.45
		c1.76,2.46,4.3,3.7,7.63,3.7c3.14,0,5.57-1.3,7.3-3.89C108.54,28.1,109.29,25.34,109.29,22.08z"/>
	<path d="M113.61,34.61h-0.96V9.94h0.96v6.1h0.1c0.22-0.9,0.58-1.76,1.06-2.59c0.48-0.83,1.12-1.56,1.92-2.18
		c0.8-0.62,1.75-1.1,2.86-1.44c1.1-0.34,2.39-0.49,3.86-0.46v0.96c-1.7-0.1-3.16,0.14-4.39,0.7c-1.23,0.56-2.25,1.33-3.05,2.3
		c-0.8,0.98-1.39,2.1-1.78,3.38c-0.38,1.28-0.58,2.59-0.58,3.94V34.61z"/>
	<path d="M143.42,22.32h-20.64c0.03,3.52,0.77,6.3,2.21,8.35c1.66,2.37,4.18,3.55,7.54,3.55c2.62,0,4.79-0.73,6.5-2.18
		c1.71-1.46,2.76-3.48,3.14-6.07h0.96c-0.32,2.82-1.44,5.06-3.36,6.72s-4.3,2.5-7.15,2.5c-3.68,0-6.46-1.3-8.35-3.89
		c-1.63-2.27-2.45-5.33-2.45-9.17c0-3.46,0.91-6.42,2.74-8.88c2.05-2.75,4.74-4.13,8.06-4.13c3.58,0,6.34,1.34,8.26,4.03
		C142.57,15.52,143.42,18.58,143.42,22.32z M142.46,21.36c0-3.17-0.82-5.79-2.45-7.87c-1.79-2.27-4.22-3.41-7.3-3.41
		c-2.98,0-5.39,1.17-7.25,3.5c-1.63,2.08-2.53,4.67-2.69,7.78H142.46z"/>
	<path d="M164.88,28.27c0,2.27-0.96,4.03-2.88,5.28c-1.63,1.09-3.65,1.63-6.05,1.63c-6.66,0-9.98-3.04-9.98-9.12h0.96
		c0,5.44,3.01,8.16,9.02,8.16c2.08,0,3.86-0.45,5.33-1.34c1.76-1.06,2.64-2.56,2.64-4.51c0-2.43-1.47-4.14-4.42-5.14
		c-2.72-0.7-5.44-1.41-8.16-2.11c-2.94-1.12-4.42-3.04-4.42-5.76c0-2.08,0.91-3.68,2.74-4.8c1.54-0.96,3.41-1.44,5.62-1.44
		c5.95,0,8.93,2.64,8.93,7.92h-0.96c0-4.64-2.66-6.96-7.97-6.96c-1.92,0-3.55,0.38-4.9,1.15c-1.66,0.96-2.5,2.34-2.5,4.13
		c0,2.37,1.47,4.05,4.42,5.04c2.72,0.7,5.44,1.42,8.16,2.16C163.4,23.68,164.88,25.58,164.88,28.27z"/>
	<path d="M186.43,28.27c0,2.27-0.96,4.03-2.88,5.28c-1.63,1.09-3.65,1.63-6.05,1.63c-6.66,0-9.98-3.04-9.98-9.12h0.96
		c0,5.44,3.01,8.16,9.02,8.16c2.08,0,3.86-0.45,5.33-1.34c1.76-1.06,2.64-2.56,2.64-4.51c0-2.43-1.47-4.14-4.42-5.14
		c-2.72-0.7-5.44-1.41-8.16-2.11c-2.94-1.12-4.42-3.04-4.42-5.76c0-2.08,0.91-3.68,2.74-4.8c1.54-0.96,3.41-1.44,5.62-1.44
		c5.95,0,8.93,2.64,8.93,7.92h-0.96c0-4.64-2.66-6.96-7.97-6.96c-1.92,0-3.55,0.38-4.9,1.15c-1.66,0.96-2.5,2.34-2.5,4.13
		c0,2.37,1.47,4.05,4.42,5.04c2.72,0.7,5.44,1.42,8.16,2.16C184.96,23.68,186.43,25.58,186.43,28.27z"/>
	<g>
		<path d="M44.34,14.25c-1.18,2.45-4.08,4.33-6.59,4.92c-2.35,0.56-4.43,0.1-6.6,0.94c-4.96,1.91-4.88,7.82-2.15,9.15l0.16,0.09
			c0,0,4.01-0.8,6.23-1.62c3.24-1.2,6.8-4.15,7.97-7.58c-0.63,3.57-3.68,7-6.76,8.56c-1.64,0.84-2.91,1.02-5.61,1.96
			c-0.33,0.12-0.59,0.23-0.59,0.23c0.68-0.11,1.36-0.15,1.36-0.15c3.84-0.18,9.82,1.08,12.62-2.65
			C47.25,24.31,45.66,18.17,44.34,14.25z"/>
		<path d="M45.75,11.71c-2.16-2.86-5.07-4.3-8.73-4.3s-6.58,1.42-8.78,4.24c-2,2.63-2.99,5.83-2.99,9.61c0,0.04,0,0.09,0,0.13
			c0.12-2.29,0.73-4.81,2.19-7.35c0.83-1.44,2.87-4.55,8.72-4.93c1.45-0.09,3.14,0.25,4.69,0.96c1.58,0.72,2.93,3.26,2.93,3.26
			l0.66-1.31c0,0,3.4,4.2,2.99,10.9c-0.04,2.8-1,6.1-2.55,7.93c-2.3,3.31-5.46,4.22-7.97,4.32c0.02,0,0.03,0,0.05,0
			c3.69,0,6.61-1.43,8.78-4.3c2-2.59,2.99-5.8,2.99-9.61C48.75,17.49,47.75,14.3,45.75,11.71z"/>
		<path d="M29,31.5c0.34-0.42,0.27-1.03-0.14-1.36c0,0,0,0,0,0c-0.42-0.34-1.03-0.27-1.37,0.14c-0.34,0.42-0.27,1.03,0.14,1.37
			C28.05,31.99,28.66,31.92,29,31.5z"/>
	</g>
</g>
</svg>
